<?xml version="1.0" encoding="UTF-8"?>
<svg id="Ebene_1" data-name="Ebene 1" xmlns="http://www.w3.org/2000/svg" baseProfile="tiny" version="1.2" viewBox="0 0 1000 1000">
  <path d="M687.9,105.7c0-18.7-6.4-26.4-20.9-26.4h-13.2v49.8h12.3c14.9,0,21.7-7.7,21.7-23.4Z" fill="none" stroke-width="0"/>
  <path d="M93,761.5c0-18.7-6.4-26.4-20.9-26.4h-13.2v49.8h12.4c14.9,0,21.7-7.7,21.7-23.4Z" fill="none" stroke-width="0"/>
  <path d="M485.6,894.4v-51.5h-61.3v37.9c0,15.8-.4,22.1-2.6,26.8-2.1,5.1-7.7,8.9-13.6,8.9s-11.1-3-13.2-8.1c-2.6-5.1-3-10.6-3-27.7v-118.8c0-14.5.4-19.2,3-23.4,3-4.7,7.7-7.2,13.6-7.2,12.4,0,15.8,6.8,15.8,30.7v29h61.3v-36.6c0-50.3-24.7-75.8-74.5-75.8s-44.3,6-58.3,17.5c-16.2,13.2-21.7,29.8-21.7,66v118.8c0,34.9,2.1,46.4,12.4,61.7,12.3,18.7,34.9,28.5,65.1,28.5h0c49.8,0,77-26.8,77-76.7Z" fill="#31281c" stroke-width="0"/>
  <path d="M147.9,643.2c22.1,0,40-7.7,54.5-22.6l7.2,18.3h23.4v-172.5h-75.8v53.2h16.6v45.1c0,17.5-4.7,24.7-15.8,24.7s-13.2-4.7-15.3-11.1c-1.7-4.7-2.1-8.5-2.1-22.6v-123.9c0-15.8.4-20,3-23.8,2.6-4.7,8.1-7.7,13.6-7.7,10.6,0,16.6,8.1,16.6,23.4v24.3h59.2c.4-7.2.4-11.5.4-16.2,0-25.6-4.3-43-12.8-54.9-12.3-17-34.9-26.4-63.5-26.4s-40,5.5-53.7,17c-17.5,14.9-24.3,34.9-24.3,70.7v122.2c0,26.8,4.3,43.4,14.5,57.5,11.5,16.2,31.1,25.1,54.1,25.1Z" fill="#31281c" stroke-width="0"/>
  <polygon points="306.7 911.4 240.3 911.4 240.3 836.5 301.6 836.5 301.6 782.4 240.3 782.4 240.3 738.1 304.2 738.1 304.2 682.8 179 682.8 179 966.8 306.7 966.8 306.7 911.4" fill="#31281c" stroke-width="0"/>
  <path d="M954,800.7l-8.1-7.2q-28.1-23.8-32.8-29.8c-3.8-5.1-6.4-11.9-6.4-16.6,0-8.5,6.4-15.8,14.5-15.8s15.8,8.5,15.8,24.3,0,5.1-.4,9.4h59.6q0-3-.4-13.2c-.4-25.6-1.3-29.8-6-40.5-8.9-20.4-34.9-32.8-69.4-32.8s-75.4,25.1-75.4,69.8,12.3,52,57.1,89.4c32.8,27.3,36.6,33.2,36.6,55.4s-5.5,25.6-17,25.6-16.2-8.1-16.2-33.6v-19.6h-59.6v20c0,18.7,0,26.4.9,31.1,1.7,13.6,6.4,25.1,14.1,33.2,13.2,14,34.5,21.3,60.9,21.3h0c51.5,0,78.3-28.5,78.3-82.6s-4.3-40-11.5-52-13.2-17.9-34.5-35.8Z" fill="#31281c" stroke-width="0"/>
  <path d="M58.9,836.1c2.1-.4,4.3-.4,5.1-.4,16.2,0,21.3,6.8,21.3,29.4v101.8h60.9v-103.1c.4-28.5-6.4-41.7-23.8-45.6,21.3-5.1,29-21.3,29-63s-19.6-72.4-66-72.4H-2v284h60.9v-130.7ZM58.9,735.1h13.2c14.5,0,20.9,7.7,20.9,26.4s-6.8,23.4-21.7,23.4h-12.4v-49.8Z" fill="#31281c" stroke-width="0"/>
  <path d="M592.9,311h60.9v-130.7c2.1-.4,4.3-.4,5.1-.4,16.2,0,21.3,6.8,21.3,29.4v101.8h60.9v-103.1c.4-28.5-6.4-41.7-23.8-45.6,21.3-5.1,29-21.3,29-63s-19.6-72.4-66-72.4h-87.4v284ZM653.8,79.3h13.2c14.5,0,20.9,7.7,20.9,26.4s-6.8,23.4-21.7,23.4h-12.3v-49.8Z" fill="#31281c" stroke-width="0"/>
  <path d="M908.4,354.8h-60.5v70.3c0,11.9.4,14.5,3.4,50.7.4,3,.9,9.8,1.3,19.2l-32.8-140.1h-64.7v284h60.9v-86.4c0-9.8-.4-18.7-.9-23-.4-9.4-1.3-18.7-2.1-28.1-.4-3.4-.9-10.2-1.3-20l32.4,157.6h64.3v-284Z" fill="#31281c" stroke-width="0"/>
  <polygon points="727.9 410.2 727.9 354.8 602.7 354.8 602.7 638.9 730.4 638.9 730.4 583.5 664 583.5 664 508.6 725.3 508.6 725.3 454.5 664 454.5 664 410.2 727.9 410.2" fill="#31281c" stroke-width="0"/>
  <polygon points="391.5 410.2 391.5 354.8 266.3 354.8 266.3 638.9 394 638.9 394 583.5 327.6 583.5 327.6 508.6 388.9 508.6 388.9 454.5 327.6 454.5 327.6 410.2 391.5 410.2" fill="#31281c" stroke-width="0"/>
  <path d="M266.3,311h68.6l12.4-95.4c3.4-26.8,5.1-43.9,7.7-84.7.9,7.7,1.3,15.8,2.1,23.8.4,6.4,1.3,14.1,1.7,22.1,1.7,18.7,3.4,38.3,4.3,40l12.3,94.1h68.6l31.1-284h-58.3l-8.9,83.5c-1.7,16.6-3,31.1-3.8,43.4l-3,38.3c0,1.7-.4,7.2-1.3,15.8l-.9-9.4c-.4-3.4-.9-10.6-1.7-21.3-3-39.2-3.4-47.3-5.5-66.4l-8.9-83.9h-53.2l-9.8,87.3c-1.7,14.5-5.5,57.5-8.1,93.7l-1.3-13.2c0-4.3-.9-11.5-1.3-22.1-2.1-32.8-2.6-34.9-4.7-58.3l-8.5-87.3h-60l30.7,284Z" fill="#31281c" stroke-width="0"/>
  <polygon points="512.4 682.8 512.4 966.8 574.2 966.8 574.2 833.5 606.5 833.5 606.5 966.8 667.9 966.8 667.9 682.8 606.5 682.8 606.5 779 574.2 779 574.2 682.8 512.4 682.8" fill="#31281c" stroke-width="0"/>
  <polygon points="787.9 966.8 787.9 739.8 824.1 739.8 824.1 682.8 691.7 682.8 691.7 739.8 726.6 739.8 726.6 966.8 787.9 966.8" fill="#31281c" stroke-width="0"/>
  <rect x="497.5" y="26.9" width="61.3" height="284" fill="#31281c" stroke-width="0"/>
  <path d="M510.3,448.1h59.2c.4-7.2.4-11.5.4-16.2,0-25.6-4.3-43-12.8-54.9-12.4-17-34.9-26.4-63.5-26.4s-40,5.5-53.7,17c-17.5,14.9-24.3,34.9-24.3,70.7v122.2c0,26.8,4.3,43.4,14.5,57.5,11.5,16.2,31.1,25.1,54.1,25.1s40-7.7,54.5-22.6l7.2,18.3h23.4v-172.5h-75.8v53.2h16.6v45.1c0,17.5-4.7,24.7-15.8,24.7s-13.2-4.7-15.3-11.1c-1.7-4.7-2.1-8.5-2.1-22.6v-123.9c0-15.8.4-20,3-23.8,2.6-4.7,8.1-7.7,13.6-7.7,10.6,0,16.6,8.1,16.6,23.4v24.3Z" fill="#31281c" stroke-width="0"/>
</svg>