<?xml version="1.0" encoding="UTF-8"?>
<svg id="Ebene_1" data-name="Ebene 1" xmlns="http://www.w3.org/2000/svg" baseProfile="tiny" version="1.2" viewBox="0 0 1000 1000">
  <path d="M235.8,466.5v172.5h-23.4l-7.2-18.3c-14.5,14.9-32.4,22.6-54.5,22.6s-42.6-8.9-54.1-25.1c-10.2-14.1-14.5-30.7-14.5-57.5v-122.3c0-35.8,6.8-55.8,24.3-70.7,13.6-11.5,30.2-17,53.7-17s51.1,9.4,63.5,26.4c8.5,11.9,12.8,29.4,12.8,55s0,8.9-.4,16.2h-59.2v-24.3c0-15.3-6-23.4-16.6-23.4s-11.1,3-13.6,7.7c-2.6,3.8-3,8.1-3,23.9v124c0,14.1.4,17.9,2.1,22.6,2.1,6.4,8.9,11.1,15.3,11.1,11.1,0,15.8-7.2,15.8-24.7v-45.2h-16.6v-53.2h75.8Z" fill="#141414" stroke-width="0"/>
  <path d="M269,354.9h125.2v55.4h-63.9v44.3h61.3v54.1h-61.3v75h66.5v55.4h-127.8v-284.1Z" fill="#141414" stroke-width="0"/>
  <path d="M572.3,466.5v172.5h-23.4l-7.2-18.3c-14.5,14.9-32.4,22.6-54.5,22.6s-42.6-8.9-54.1-25.1c-10.2-14.1-14.5-30.7-14.5-57.5v-122.3c0-35.8,6.8-55.8,24.3-70.7,13.6-11.5,30.2-17,53.7-17s51.1,9.4,63.5,26.4c8.5,11.9,12.8,29.4,12.8,55s0,8.9-.4,16.2h-59.2v-24.3c0-15.3-6-23.4-16.6-23.4s-11.1,3-13.6,7.7c-2.6,3.8-3,8.1-3,23.9v124c0,14.1.4,17.9,2.1,22.6,2.1,6.4,8.9,11.1,15.3,11.1,11.1,0,15.8-7.2,15.8-24.7v-45.2h-16.6v-53.2h75.8Z" fill="#141414" stroke-width="0"/>
  <path d="M605.5,354.9h125.2v55.4h-63.9v44.3h61.3v54.1h-61.3v75h66.5v55.4h-127.8v-284.1Z" fill="#141414" stroke-width="0"/>
  <path d="M911.4,639h-64.3l-32.4-157.6c.4,9.8.9,16.6,1.3,20,.9,9.4,1.7,18.7,2.1,28.1.4,4.3.9,13.2.9,23v86.5h-60.9v-284.1h64.8l32.8,140.2c-.4-9.4-.9-16.2-1.3-19.2-3-36.2-3.4-38.8-3.4-50.7v-70.3h60.5v284.1Z" fill="#141414" stroke-width="0"/>
  <path d="M3.8,682.9h87.3c46.4,0,66,21.3,66,72.4s-7.7,57.9-29,63c17.5,3.8,24.3,17,23.9,45.6v103.1h-60.9v-101.8c0-22.6-5.1-29.4-21.3-29.4s-3,0-5.1.4v130.8H3.8v-284.1ZM77.1,785.1c14.9,0,21.7-7.7,21.7-23.4s-6.4-26.4-20.9-26.4h-13.2v49.8h12.4Z" fill="#141414" stroke-width="0"/>
  <path d="M178.5,682.9h125.2v55.4h-63.9v44.3h61.3v54.1h-61.3v75h66.5v55.4h-127.8v-284.1Z" fill="#141414" stroke-width="0"/>
  <path d="M485.2,843v51.5c0,49.8-27.3,76.7-77.1,76.7s-52.8-9.8-65.2-28.5c-10.2-15.3-12.4-26.8-12.4-61.8v-118.9c0-36.2,5.5-52.8,21.7-66,14.1-11.5,34.1-17.5,58.4-17.5,49.8,0,74.5,25.6,74.5,75.8v36.6h-61.3v-29c0-23.9-3.4-30.7-15.8-30.7s-10.6,2.6-13.6,7.2c-2.6,4.3-3,8.9-3,23.4v118.9c0,17,.4,22.6,3,27.7,2.1,5.1,7.2,8.1,13.2,8.1s11.5-3.8,13.6-8.9c2.1-4.7,2.6-11.1,2.6-26.8v-37.9h61.3Z" fill="#141414" stroke-width="0"/>
  <path d="M512,682.9h61.8v96.3h32.4v-96.3h61.3v284.1h-61.3v-133.3h-32.4v133.3h-61.8v-284.1Z" fill="#141414" stroke-width="0"/>
  <path d="M726.3,740h-34.9v-57.1h132.5v57.1h-36.2v227.1h-61.3v-227.1Z" fill="#141414" stroke-width="0"/>
  <path d="M905.2,865.6v19.6c0,25.6,3.8,33.7,16.2,33.7s17-8.5,17-25.6-3.8-28.1-36.6-55.4c-44.7-37.5-57.1-56.7-57.1-89.5s27.3-69.9,75.4-69.9,60.5,12.4,69.4,32.8c4.7,10.6,5.5,14.9,6,40.5q.4,10.2.4,13.2h-59.6c.4-4.3.4-6.4.4-9.4,0-15.8-5.5-24.3-15.8-24.3s-14.5,7.2-14.5,15.8,2.6,11.5,6.4,16.6q4.7,6,32.8,29.8l8.1,7.2c21.3,17.9,27.3,23.9,34.5,35.8s11.5,30.7,11.5,52c0,54.1-26.8,82.6-78.4,82.6s-47.7-7.2-60.9-21.3c-7.7-8.1-12.4-19.6-14.1-33.2-.9-4.7-.9-12.4-.9-31.1v-20h59.6Z" fill="#141414" stroke-width="0"/>
</svg>