<?xml version="1.0" encoding="UTF-8"?>
<svg id="Ebene_2" data-name="Ebene 2" xmlns="http://www.w3.org/2000/svg" version="1.1" viewBox="0 0 1155.5 1058.2">
  <g isolation="isolate">
    <polyline points="929.7 465.3 949.9 476.9 94.8 973.8 29.9 936.4 609.2 599.7" fill="none" stroke="#31281c" stroke-linecap="round" stroke-linejoin="round" stroke-width="4"/>
    <polygon points="949.9 476.9 949.7 526.7 94.7 1023.6 94.8 973.8 949.9 476.9" fill="none" stroke="#31281c" stroke-linecap="round" stroke-linejoin="round" stroke-width="4"/>
    <polygon points="94.8 973.8 94.7 1023.6 29.8 986.2 29.9 936.4 94.8 973.8" fill="none" stroke="#31281c" stroke-linecap="round" stroke-linejoin="round" stroke-width="4"/>
  </g>
  <path d="M-737.4,444.7h0c-34.5-33.3-31.8-67.1-11.9-108.6,4.3-9,9.5-18.4,15.3-28.3,5.9-10.1,12.5-20.6,19.5-31.7,6.7-10.6,13.8-21.7,21-33.4,14.9-23.9,30.6-50.2,45.4-79.4.6-1.1,1.1-2.2,1.7-3.3,13.5-26.9,26.2-56.3,36.9-88.6l266.2,153.7c-13,31.1-28.3,58.9-44,84.5-.7,1.1-1.3,2.1-2,3.2-17.2,27.7-34.7,52.7-50.4,76.6-15.1,22.9-28.3,44.8-37.7,66.7-4.4,10.3-8,20.6-10.4,31.1h0c-8.1,33.9-4.9,69.6,16.7,111.3" fill="none" stroke="#31281c" stroke-linecap="round" stroke-linejoin="round" stroke-width="4"/>
  <polyline points="-557.6 909.7 -371.2 1017.4 -97.7 859.5 -97.7 586.7 -365.3 432.3" fill="none" stroke="#31281c" stroke-linecap="round" stroke-linejoin="round" stroke-width="4"/>
  <polyline points="-714.6 124.9 -714.6 230.6 -760 204.4 -1033.5 362.3 -1033.5 635 -906.9 708.1 -1097.7 818.3" fill="none" stroke="#31281c" stroke-linecap="round" stroke-linejoin="round" stroke-width="4"/>
  <polyline points="-1033.5 362.3 -371.2 744.6 -97.7 586.7" fill="none" stroke="#31281c" stroke-linecap="round" stroke-linejoin="round" stroke-width="4"/>
  <line x1="-371.2" y1="1017.4" x2="-371.2" y2="744.6" fill="none" stroke="#31281c" stroke-linecap="round" stroke-linejoin="round" stroke-width="4"/>
  <path d="M-969.2,672.1v-136.3c0-23.9,14.6-34.9,32.5-24.6l185.4,107,283.4,163.6c16.8,9.7,30.6,34.6,32.3,57.4.1,1.6.2,3.1.2,4.7v136.3" fill="none" stroke="#31281c" stroke-linecap="round" stroke-linejoin="round" stroke-width="4"/>
  <polyline points="-935 616.9 -469.7 885.5 -469.7 960.5" fill="none" stroke="#31281c" stroke-linecap="round" stroke-linejoin="round" stroke-width="4"/>
  <path d="M-1097.7,818.3c2.5,1.7,349.3,201.7,349.3,201.7l255.8-147.7" fill="none" stroke="#31281c" stroke-linecap="round" stroke-linejoin="round" stroke-width="4"/>
  <polyline points="-734.1 307.9 -760 292.9 -880.2 362.3 -371.2 656.1 -251 586.7 -365.3 520.8" fill="none" stroke="#31281c" stroke-linecap="round" stroke-linejoin="round" stroke-width="4"/>
  <polyline points="-844.1 383.1 -760 330 -749.3 336.2" fill="none" stroke="#31281c" stroke-linecap="round" stroke-linejoin="round" stroke-width="4"/>
  <line x1="-714.6" y1="230.6" x2="-714.6" y2="276.1" fill="none" stroke="#31281c" stroke-linecap="round" stroke-linejoin="round" stroke-width="4"/>
  <line x1="-714.6" y1="124.9" x2="-648.1" y2="163.3" fill="none" stroke="#31281c" stroke-linecap="round" stroke-linejoin="round" stroke-width="4"/>
  <polyline points="-487.9 487.1 -315.3 586.7 -399.4 639.9" fill="none" stroke="#31281c" stroke-linecap="round" stroke-linejoin="round" stroke-width="4"/>
  <polyline points="-389.3 312.8 -365.3 326.6 -365.3 557.9" fill="none" stroke="#31281c" stroke-linecap="round" stroke-linejoin="round" stroke-width="4"/>
  <path d="M-396.9,870.8c-5.1-2.9-9.2-10.1-9.2-16s4.1-8.3,9.2-5.3c5.1,2.9,9.2,10.1,9.2,15.9s-4.1,8.3-9.2,5.3Z" fill="none" stroke="#31281c" stroke-linecap="round" stroke-linejoin="round" stroke-width="4"/>
  <path d="M-396.9,842.1c-3.7-2.2-7-6.6-8.4-11.1-.5-1.6-.8-3.3-.8-4.8s.5-3.5,1.3-4.6c.8-1.1,2-1.8,3.3-1.9,1.4-.1,2.9.3,4.6,1.2,1.3.8,2.6,1.9,3.8,3.1,3.2,3.5,5.4,8.5,5.4,12.8s-4.1,8.3-9.2,5.3Z" fill="none" stroke="#31281c" stroke-linecap="round" stroke-linejoin="round" stroke-width="4"/>
  <path d="M-396.9,808.1c-7.9-4.5-14.3-15.6-14.3-24.7s6.4-12.8,14.3-8.2c7.9,4.6,14.3,15.6,14.3,24.7s-6.4,12.8-14.3,8.2Z" fill="none" stroke="#31281c" stroke-linecap="round" stroke-linejoin="round" stroke-width="4"/>
  <line x1="-935" y1="616.9" x2="-935" y2="691.9" fill="none" stroke="#31281c" stroke-linecap="round" stroke-linejoin="round" stroke-width="4"/>
  <line x1="-906.9" y1="708.1" x2="-842" y2="670.6" fill="none" stroke="#31281c" stroke-linecap="round" stroke-linejoin="round" stroke-width="4"/>
  <g>
    <polyline points="1134.2 338 1134.2 346.5 654 625.5 312.2 428.2 312.2 419.7" fill="none" stroke="#31281c" stroke-linecap="round" stroke-linejoin="round" stroke-width="4"/>
    <polyline points="1040.1 283.7 1134.2 338 654 617 312.2 419.7 406.9 364.7" fill="none" stroke="#31281c" stroke-linecap="round" stroke-linejoin="round" stroke-width="4"/>
    <g>
      <path d="M761.9,444.6l27.1,40.6c6.4,9.6,5.8,22.3-1.4,31.3-7.3,9-19.5,12.3-30.3,8.1l-64.8-25.4,2.2,3.7c5.8,9.6,4.9,21.9-2.2,30.6-7.2,8.7-19.1,11.9-29.6,8l-197.5-73.1c-13.7-5.1-20.7-20.3-15.6-34.1,5.1-13.7,20.3-20.7,34.1-15.6l46.9,17.4" fill="none" stroke="#31281c" stroke-linecap="round" stroke-linejoin="round" stroke-width="4"/>
      <path d="M865.9,384.2l12.5,20.4c6,9.8,5,22.4-2.5,31.1-7.5,8.7-19.8,11.6-30.4,7.2l-46.7-19.7" fill="none" stroke="#31281c" stroke-linecap="round" stroke-linejoin="round" stroke-width="4"/>
    </g>
    <line x1="654" y1="617" x2="654" y2="625.5" fill="none" stroke="#31281c" stroke-linecap="round" stroke-linejoin="round" stroke-width="4"/>
  </g>
  <path d="M1134.2,228.3l-480.2,279.1-256.6-148.1c-10.9-6.3-13.4-20.9-5.2-30.5l16.1-18.7-16.3-19c-8.2-9.5-5.7-24.1,5.2-30.4L792.4,31l341.7,197.3Z" fill="none" stroke="#31281c" stroke-linecap="round" stroke-linejoin="round" stroke-width="4"/>
  <line x1="387.3" y1="277.9" x2="387.4" y2="341.4" fill="none" stroke="#31281c" stroke-linecap="round" stroke-linejoin="round" stroke-width="4"/>
  <path d="M955.6,860.6c.1,0,.3,0,.4-.1-.4.1-.8.2-1.2.4.3,0,.5-.2.8-.3Z" fill="none" stroke="#31281c" stroke-miterlimit="10" stroke-width="4"/>
  <path d="M957.2,860.2c1.2-.4,2.4-.7,3.6-.9-1.2.3-2.4.6-3.6.9Z" fill="none" stroke="#31281c" stroke-miterlimit="10" stroke-width="4"/>
  <path d="M972.8,857.4c1.1,0,2.2-.1,3.3-.1-1.1,0-2.2,0-3.3.1Z" fill="none" stroke="#31281c" stroke-miterlimit="10" stroke-width="4"/>
  <path d="M992.9,859.1c.1,0,.3,0,.4,0-.1,0-.2,0-.3,0,0,0,0,0,0,0Z" fill="none" stroke="#31281c" stroke-miterlimit="10" stroke-width="4"/>
  <path d="M1001.7,861.8c.2,0,.4.2.6.3-.2,0-.4-.2-.6-.2,0,0,0,0,0,0Z" fill="none" stroke="#31281c" stroke-miterlimit="10" stroke-width="4"/>
  <line x1="981.2" y1="844.2" x2="981.2" y2="844.1" fill="none" stroke="#31281c" stroke-miterlimit="10" stroke-width="4"/>
  <path d="M1015.3,869.4c0,0-.1-.1-.2-.2,0,0-.1-.1-.2-.2,0,0-.2-.1-.3-.2,0,0-.1,0-.2-.1,0,0-.2-.1-.3-.2,0,0-.2-.1-.2-.2-.2-.1-.4-.3-.6-.4" fill="none" stroke="#31281c" stroke-miterlimit="10" stroke-width="4"/>
  <path d="M1013.2,868c0,0-.1,0-.2-.1-.1-.1-.3-.2-.5-.3-.3-.2-.6-.4-.9-.6,0,0-.1-.1-.2-.1-.2-.1-.4-.3-.7-.4-.3-.2-.5-.3-.8-.5-.3-.2-.6-.4-.9-.5-.3-.2-.7-.4-1-.6-.1,0-.3-.2-.4-.2,0,0-.1,0-.2-.1-.1,0-.3-.2-.4-.2-.2,0-.3-.2-.5-.3-.5-.3-1-.5-1.6-.8-.2-.1-.5-.2-.8-.3,0,0-.2,0-.3-.1-.4-.2-.9-.4-1.3-.6,0,0,0,0,0,0,0,0,0,0,0,0-.2,0-.4-.2-.6-.3-.2,0-.5-.2-.7-.3-.1,0-.3-.1-.4-.2,0,0-.2,0-.2,0-.3-.1-.6-.2-.9-.3-.3-.1-.5-.2-.8-.3,0,0-.2,0-.2,0-.4-.1-.7-.2-1.1-.3-.2,0-.4-.1-.6-.2-.4-.1-.9-.3-1.3-.4-.2,0-.3,0-.5-.1,0,0,0,0,0,0-.5-.1-1-.3-1.6-.4-.1,0-.3,0-.4,0h0c-.3,0-.5-.1-.8-.2-.3,0-.7-.1-1-.2-.2,0-.4,0-.5-.1-.5,0-.9-.2-1.4-.3-1.5-.3-3-.5-4.5-.6-.8,0-1.6-.1-2.3-.2-1.6-.1-3.2-.2-4.8-.2-.5,0-1,0-1.4,0-1.1,0-2.2,0-3.3.1-.8,0-1.6.1-2.4.2-.8,0-1.6.2-2.4.3-.8.1-1.6.2-2.4.4-.4,0-.8.1-1.2.2-.4,0-.8.1-1.2.2-.8.2-1.6.3-2.4.5-1.2.3-2.4.6-3.6.9-.4.1-.8.2-1.2.4-.1,0-.3,0-.4.1-.3,0-.5.2-.8.3-1.7.5-3.4,1.1-5,1.8l-1,.4c-1.2.5-2.4,1-3.6,1.6-.6.3-1.2.6-1.8.9-.2,0-.3.1-.5.2h0c0,0,11.1-6.3,11.1-6.3l25.5-14.3,1.7-.9" fill="none" stroke="#31281c" stroke-miterlimit="10" stroke-width="4"/>
  <path d="M957.2,860.2c1.2-.4,2.4-.7,3.6-.9-1.2.3-2.4.6-3.6.9Z" fill="none" stroke="#31281c" stroke-miterlimit="10" stroke-width="4"/>
  <path d="M994.9,859.5c-.6-.2-1.3-.3-1.9-.5,0,0,0,0,0,0,.1,0,.3,0,.4,0,.5.1,1,.3,1.6.4Z" fill="none" stroke="#31281c" stroke-miterlimit="10" stroke-width="4"/>
  <path d="M893,828.6c-.3.1-.6.3-.9.4.3-.2.6-.3.9-.5.4-.2.7-.4,1.1-.5-.3.2-.7.3-1.1.5Z" fill="none" stroke="#31281c" stroke-miterlimit="10" stroke-width="4"/>
  <path d="M993.6,1002.3c-12.6,7.1-25.8,10.5-38.2,10.4-14.2,0-27.6-4.4-38.4-12.7,0,0-.2-.1-.2-.2-.3-.3-.7-.5-1-.8-.3-.2-.6-.5-.8-.7-.3-.2-.5-.4-.7-.6-.4-.3-.7-.6-1-.9,0,0-.1-.1-.2-.2-.4-.3-.8-.7-1.1-1.1-.2-.2-.4-.4-.6-.6-.2-.2-.4-.4-.6-.6-.3-.3-.6-.6-.9-.9-.4-.4-.8-.9-1.2-1.4-.4-.4-.8-.9-1.1-1.3,0,0,0-.1-.1-.2-.3-.3-.6-.7-.9-1.1-.2-.3-.4-.5-.6-.8-.1-.2-.3-.3-.4-.5-.3-.4-.6-.7-.8-1.1-.4-.5-.7-1.1-1.1-1.6-.3-.5-.6-1-.9-1.5-.8-1.3-1.6-2.6-2.3-4-.3-.6-.7-1.3-1-2-.3-.5-.5-1.1-.8-1.7-.4-.8-.7-1.6-1.1-2.5-.3-.8-.6-1.5-.9-2.3-.3-.8-.5-1.5-.8-2.3-.3-.8-.5-1.6-.7-2.4-.2-.8-.4-1.6-.6-2.4-.3-1.2-.6-2.4-.8-3.6-.2-1-.4-2-.5-3-.1-1-.3-2-.4-3,0-.8-.2-1.6-.2-2.4,0-.8-.1-1.6-.1-2.5,0-.8,0-1.6,0-2.5,0-4.1.2-8.2.8-12.3s.2-1.7.4-2.5c0,0,0-.1,0-.2.1-.6.2-1.3.4-1.9,0-.3.1-.5.1-.8.1-.5.2-1.1.4-1.6,0-.3.1-.5.2-.8.2-.8.4-1.5.6-2.3.2-.7.4-1.4.6-2.1,0-.3.2-.6.3-.9.1-.4.2-.8.4-1.2,0-.3.2-.7.3-1,.5-1.4,1-2.8,1.5-4.2.1-.3.2-.6.3-.9.2-.5.4-1.1.7-1.6,0-.2.1-.3.2-.5.3-.6.5-1.2.8-1.8.4-.8.8-1.7,1.2-2.5.2-.3.3-.6.5-1,.3-.6.6-1.3,1-1.9.1-.2.2-.5.4-.7,0,0,0-.2.1-.2,0-.1.1-.3.2-.4.2-.4.4-.8.6-1.2,0,0,0,0,0,0,.3-.5.6-1.1.9-1.6.6-.9,1.1-1.9,1.7-2.8.4-.6.8-1.2,1.2-1.9,0-.1.2-.2.3-.4.4-.6.8-1.2,1.2-1.8,0,0,0-.1.1-.2.2-.3.4-.5.5-.8,0,0,.1-.2.2-.2,0,0,0-.1.1-.1,0-.1.2-.2.3-.4.3-.4.6-.8.8-1.1.2-.3.4-.6.7-.9.3-.4.7-.9,1.1-1.3.2-.3.5-.6.7-.9.3-.4.7-.8,1.1-1.2.2-.2.4-.5.6-.7.6-.6,1.1-1.2,1.7-1.9.4-.4.8-.9,1.3-1.3.4-.4.8-.8,1.2-1.2,0,0,.2-.2.3-.3.5-.5,1-1,1.5-1.4.2-.2.4-.4.6-.6.4-.4.9-.8,1.3-1.2.2-.2.5-.4.7-.6.4-.4.8-.7,1.3-1.1.3-.2.5-.4.8-.6.4-.3.8-.6,1.2-1,.5-.4,1-.8,1.5-1.1h.1c.3-.3.6-.6.9-.8.3-.2.6-.5,1-.7.2-.1.3-.2.5-.3.5-.3,1-.7,1.5-1,.6-.4,1.2-.8,1.8-1.2.7-.5,1.4-.9,2.2-1.4.1,0,.2-.1.3-.2.7-.4,1.5-.9,2.2-1.3.8-.4,1.6-.9,2.4-1.3.6-.3,1.2-.6,1.8-.9.6-.3,1.2-.6,1.8-.9,1.2-.6,2.4-1.1,3.6-1.6l1-.4c1.7-.7,3.3-1.3,5-1.8.4-.1.8-.3,1.2-.4.4-.1.8-.3,1.2-.4,1.2-.4,2.4-.7,3.6-.9.8-.2,1.6-.4,2.4-.5.4,0,.8-.2,1.2-.2.4,0,.8-.1,1.2-.2.8-.1,1.6-.2,2.4-.4.8-.1,1.6-.2,2.4-.3.8,0,1.6-.1,2.4-.2,1.1,0,2.2-.1,3.3-.1.5,0,1,0,1.4,0,1.6,0,3.2,0,4.8.2.8,0,1.6.1,2.3.2,1.5.2,3,.4,4.5.6.5,0,.9.2,1.4.3.2,0,.3,0,.5.1.3,0,.7.1,1,.2.3,0,.5.1.8.2h0c.1,0,.3,0,.4,0,.5.1,1,.3,1.6.4,0,0,0,0,0,0,.2,0,.3,0,.5.1.4.1.9.2,1.3.4.2,0,.4.1.6.2.4.1.7.2,1.1.3,0,0,.1,0,.2,0,.3,0,.5.2.8.3.3.1.6.2.9.3,0,0,.2,0,.2,0,.1,0,.3,0,.4.2.2,0,.5.2.7.3,0,0,0,0,0,0,.2,0,.4.2.6.2,0,0,0,0,0,0,.4.2.9.4,1.3.6,0,0,.2,0,.3.1.3.1.5.2.8.3.5.2,1,.5,1.6.8.3.2.6.3,1,.5,0,0,.2,0,.2.1.1,0,.3.1.4.2.3.2.7.4,1,.6.3.2.6.4.9.5.3.1.6.3.8.5.2.1.4.3.7.4,0,0,.1,0,.2.1.3.2.6.4.9.6.2,0,.3.2.5.3,0,0,.1,0,.2.1.2.2.4.3.6.4,0,0,.2.1.2.2,0,0,.2.1.3.2,0,0,.1,0,.2.1,0,0,.2.1.3.2,0,0,.1.1.2.2,8.8,6.5,16,15.5,20.6,26.9,15,37.2-3.8,84.7-42,106.2Z" fill="none" stroke="#31281c" stroke-miterlimit="10" stroke-width="4"/>
  <path d="M976.7,960.3c-4.7,2.7-9.7,3.9-14.4,3.9-5.3,0-10.4-1.7-14.4-4.8,0,0,0,0,0,0-.1,0-.3-.2-.4-.3-.1,0-.2-.2-.3-.3,0,0-.2-.2-.3-.2-.1-.1-.3-.2-.4-.3,0,0,0,0,0,0-.1-.1-.3-.3-.4-.4,0,0-.2-.1-.2-.2,0,0-.1-.2-.2-.2-.1-.1-.2-.2-.3-.4-.2-.2-.3-.3-.5-.5-.1-.2-.3-.3-.4-.5,0,0,0,0,0,0-.1-.1-.2-.3-.3-.4,0,0-.2-.2-.2-.3,0,0,0-.1-.1-.2-.1-.1-.2-.3-.3-.4-.1-.2-.3-.4-.4-.6-.1-.2-.2-.4-.4-.6-.3-.5-.6-1-.9-1.5-.1-.2-.3-.5-.4-.7-.1-.2-.2-.4-.3-.6-.1-.3-.3-.6-.4-.9-.1-.3-.2-.6-.3-.9-.1-.3-.2-.6-.3-.9,0-.3-.2-.6-.3-.9,0-.3-.2-.6-.2-.9-.1-.4-.2-.9-.3-1.4,0-.4-.1-.8-.2-1.1,0-.4-.1-.8-.1-1.1,0-.3,0-.6,0-.9,0-.3,0-.6,0-.9,0-.3,0-.6,0-.9,0-1.5,0-3.1.3-4.6s0-.6.1-.9c0,0,0,0,0,0,0-.2,0-.5.1-.7,0,0,0-.2,0-.3,0-.2,0-.4.1-.6,0,0,0-.2,0-.3,0-.3.1-.6.2-.9,0-.3.1-.5.2-.8,0-.1,0-.2.1-.3,0-.2,0-.3.1-.5,0-.1,0-.3.1-.4.2-.5.4-1.1.6-1.6,0-.1,0-.2.1-.3,0-.2.2-.4.2-.6,0,0,0-.1,0-.2,0-.2.2-.5.3-.7.1-.3.3-.6.4-.9,0-.1.1-.2.2-.4.1-.2.2-.5.4-.7,0,0,0-.2.1-.3,0,0,0,0,0,0,0,0,0,0,0-.1,0-.1.2-.3.2-.4,0,0,0,0,0,0,.1-.2.2-.4.3-.6.2-.3.4-.7.6-1,.1-.2.3-.5.5-.7,0,0,0,0,0-.1.2-.2.3-.4.5-.7,0,0,0,0,0,0,0,0,.1-.2.2-.3,0,0,0,0,0,0,0,0,0,0,0,0,0,0,0,0,.1-.1,0-.1.2-.3.3-.4,0-.1.2-.2.3-.3.1-.2.3-.3.4-.5,0-.1.2-.2.3-.3.1-.2.3-.3.4-.5,0,0,.1-.2.2-.3.2-.2.4-.5.6-.7.2-.2.3-.3.5-.5.1-.2.3-.3.5-.5,0,0,0,0,.1-.1.2-.2.4-.4.6-.5,0,0,.2-.1.2-.2.2-.2.3-.3.5-.5,0,0,.2-.2.3-.2.2-.1.3-.3.5-.4,0,0,.2-.2.3-.2.1-.1.3-.2.4-.4.2-.1.4-.3.5-.4h0c.1-.1.2-.2.4-.3.1,0,.2-.2.4-.3,0,0,.1,0,.2-.1.2-.1.4-.3.5-.4.2-.2.4-.3.7-.5.3-.2.5-.3.8-.5,0,0,0,0,.1,0,.3-.2.5-.3.8-.5.3-.2.6-.3.9-.5.2-.1.4-.2.7-.3.2-.1.4-.2.7-.3.4-.2.9-.4,1.4-.6l.4-.2c.6-.2,1.3-.5,1.9-.7.2,0,.3,0,.4-.1.2,0,.3,0,.5-.1.5-.1.9-.2,1.4-.4.3,0,.6-.1.9-.2.1,0,.3,0,.4,0,.2,0,.3,0,.5,0,.3,0,.6,0,.9-.1.3,0,.6,0,.9-.1.3,0,.6,0,.9,0,.4,0,.8,0,1.2,0,.2,0,.4,0,.5,0,.6,0,1.2,0,1.8,0,.3,0,.6,0,.9,0,.6,0,1.1.1,1.7.2.2,0,.4,0,.5.1,0,0,.1,0,.2,0,.1,0,.2,0,.4,0,0,0,.2,0,.3,0h0s0,0,.1,0c.2,0,.4,0,.6.2,0,0,0,0,0,0,0,0,.1,0,.2,0,.2,0,.3,0,.5.1,0,0,.2,0,.2,0,.1,0,.3,0,.4.1,0,0,0,0,0,0,.1,0,.2,0,.3.1.1,0,.2,0,.3.1,0,0,0,0,0,0,0,0,.1,0,.1,0,0,0,.2,0,.3.1,0,0,0,0,0,0,0,0,.2,0,.2,0,0,0,0,0,0,0,.2,0,.3.1.5.2,0,0,0,0,.1,0,0,0,.2,0,.3.1.2,0,.4.2.6.3.1,0,.2.1.4.2,0,0,0,0,0,0,0,0,.1,0,.2,0,.1,0,.3.1.4.2.1,0,.2.1.4.2.1,0,.2.1.3.2,0,0,.2,0,.2.2,0,0,0,0,0,0,.1,0,.2.1.3.2,0,0,.1,0,.2.1,0,0,0,0,0,0,0,0,.2.1.2.2,0,0,0,0,0,0,0,0,0,0,.1,0,0,0,0,0,0,0,0,0,0,0,0,0,0,0,0,0,0,0,3.3,2.4,6,5.8,7.7,10.1,5.6,14-1.4,31.8-15.8,39.9Z" fill="none" stroke="#31281c" stroke-miterlimit="10" stroke-width="4"/>
  <path d="M1007.6,764.1l-118.3,66.5c-.7.4-1.5.8-2.2,1.3-.1,0-.2.1-.3.2l-3.6,2.3c-.2.1-.4.3-.7.5-.2.1-.4.2-.5.4-.5.3-.9.6-1.4,1-.4.3-.8.6-1.2.9-.3.2-.6.5-.9.7-.3.2-.6.5-1,.7-.4.3-.9.7-1.3,1-.3.2-.5.4-.8.6-.1,0-.2.2-.3.3,0,0-.2.2-.3.3,0,0-.2.1-.3.2-.1.1-.3.2-.4.3-.3.2-.5.4-.7.6-.5.4-.9.8-1.3,1.2-.2.2-.4.4-.6.6-.5.5-1,.9-1.5,1.4-.1,0-.2.2-.3.3-.5.4-.9.9-1.3,1.3-.3.3-.6.6-.8.9,0,0-.1.1-.2.2v.2c-.3.2-.5.4-.7.6-.3.3-.6.6-.9.9-.4.4-.8.9-1.2,1.4-.2.2-.4.5-.6.7-.3.3-.6.7-.8,1-.4.4-.7.9-1.1,1.3-.2.3-.5.6-.7.9-.3.4-.6.7-.8,1.1,0,.1-.2.2-.3.3,0,.1-.2.2-.2.3,0,.1-.2.2-.3.4-.1.2-.2.3-.3.5-.1.2-.3.4-.4.5-.4.5-.8,1.1-1.1,1.6-.4.5-.7,1.1-1.1,1.6-.2.3-.4.6-.6,1,0,0,0,0,0,0-.4.6-.8,1.3-1.2,1.9,0,0,0,0,0,.1-.3.6-.7,1.2-1,1.7-.4.7-.8,1.4-1.1,2.1t0,0c-.3.6-.6,1.2-.9,1.8-.3.6-.6,1.2-.9,1.8-.6,1.2-1.1,2.5-1.7,3.7-.3.6-.5,1.2-.7,1.8-.2.6-.5,1.2-.7,1.9-.4.9-.7,1.9-1,2.8-.3.9-.6,1.9-.9,2.8-.2.6-.4,1.3-.6,1.9-.2.6-.4,1.3-.5,1.9-.3,1.3-.6,2.6-.9,3.8-.1.6-.3,1.3-.4,1.9-.1.6-.2,1.3-.3,1.9h0c-.4,2.4-.7,4.7-.8,7,0,.6,0,1.1-.1,1.7-.1,2.2-.2,4.5-.1,6.7,0,.1,0,.3,0,.4,0,.7,0,1.5,0,2.2,0,.5,0,1,0,1.5,0,1.1.2,2.3.4,3.4.2,1.3.4,2.6.6,3.9.2,1.1.4,2.2.7,3.3.2.9.4,1.8.7,2.7.2.7.4,1.3.6,2,.6,2,1.3,3.9,2,5.8,4.5,11.2,11.6,20.2,20.4,26.7l50,37.1c-.2-.2-.5-.3-.7-.5,0,0-.2-.1-.2-.2-.3-.3-.7-.5-1-.8-.3-.2-.6-.5-.8-.7-.3-.2-.5-.4-.7-.6-.4-.3-.7-.6-1-.9,0,0-.1-.1-.2-.2-.4-.3-.8-.7-1.1-1.1-.2-.2-.4-.4-.6-.6-.2-.2-.4-.4-.6-.6-.3-.3-.6-.6-.9-.9-.4-.4-.8-.9-1.2-1.4-.4-.4-.8-.9-1.1-1.3,0,0,0-.1-.1-.2-.3-.3-.6-.7-.9-1.1-.2-.3-.4-.5-.6-.8-.1-.2-.3-.3-.4-.5-.3-.4-.6-.7-.8-1.1-.4-.5-.7-1.1-1.1-1.6-.3-.5-.6-1-.9-1.5-.8-1.3-1.6-2.6-2.3-4-.3-.6-.7-1.3-1-2-.3-.5-.5-1.1-.8-1.7-.4-.8-.7-1.6-1.1-2.5-.3-.8-.6-1.5-.9-2.3-.3-.8-.5-1.5-.8-2.3-.3-.8-.5-1.6-.7-2.4-.2-.8-.4-1.6-.6-2.4-.3-1.2-.6-2.4-.8-3.6-.2-1-.4-2-.5-3-.2-1-.3-2-.4-3,0-.8-.2-1.6-.2-2.4,0-.8-.1-1.6-.1-2.5,0-.8,0-1.6,0-2.5,0-4.1.2-8.2.8-12.3s.2-1.7.4-2.5c0,0,0-.1,0-.2.1-.6.2-1.3.4-1.9,0-.3.1-.5.1-.8.1-.5.2-1.1.4-1.6,0-.3.1-.5.2-.8.2-.8.4-1.5.6-2.3.2-.7.4-1.4.6-2.1,0-.3.2-.6.3-.9.1-.4.2-.8.4-1.2,0-.3.2-.7.3-1,.5-1.4,1-2.8,1.5-4.2.1-.3.2-.6.3-.9.2-.5.4-1.1.7-1.6,0-.2.1-.3.2-.5.3-.6.5-1.2.8-1.8.4-.8.8-1.7,1.2-2.5.2-.3.3-.6.5-1,.3-.6.6-1.3,1-1.9.1-.2.2-.5.4-.7,0,0,0-.2.1-.2,0-.1.1-.3.2-.4.2-.4.4-.8.6-1.2,0,0,0,0,0,0,.3-.5.6-1.1.9-1.6.6-.9,1.1-1.9,1.7-2.8.4-.6.8-1.2,1.2-1.9,0-.1.2-.2.3-.4.4-.6.8-1.2,1.2-1.8,0,0,0-.1.1-.2.2-.3.4-.5.5-.8,0,0,.1-.2.2-.2,0,0,0-.1.1-.1,0-.1.2-.2.3-.4.3-.4.6-.8.8-1.1.2-.3.4-.6.7-.9.3-.5.7-.9,1.1-1.3.2-.3.5-.6.7-.9.3-.4.7-.8,1.1-1.2.2-.2.4-.5.6-.7.6-.6,1.1-1.2,1.7-1.9.4-.4.8-.9,1.3-1.3.4-.4.8-.8,1.2-1.2,0,0,.2-.2.3-.3.5-.5,1-1,1.5-1.4.2-.2.4-.4.6-.6.4-.4.9-.8,1.3-1.2.2-.2.5-.4.7-.6.4-.4.8-.7,1.3-1.1.3-.2.5-.4.8-.6.4-.3.8-.6,1.2-1,.5-.4,1-.8,1.5-1.1h.1c.3-.3.6-.6.9-.8.3-.2.6-.5,1-.7.2-.1.3-.2.5-.3.5-.3,1-.7,1.5-1,.6-.4,1.2-.8,1.8-1.2.7-.5,1.4-.9,2.2-1.4.1,0,.2-.1.3-.2.7-.4,1.5-.9,2.2-1.3l3.6-2,11.1-6.2,25.5-14.3,1.7-.9h0s76.3-43,76.3-43l-2.7-9.5-9.8.2-2.7-9.5-9.8.2-2.7-9.5-9.8.2-2.7-9.5-9.8.2Z" fill="none" stroke="#31281c" stroke-miterlimit="10" stroke-width="4"/>
  <line x1="981.2" y1="844.1" x2="1010.8" y2="866.4" fill="none" stroke="#31281c" stroke-miterlimit="10" stroke-width="4"/>
</svg>